<svg xmlns="http://www.w3.org/2000/svg" width="1280" height="720" viewBox="0 0 1280 720" role="img" aria-labelledby="title desc">
  <title id="title">Windows activation settings mockup</title>
  <desc id="desc">Original Tesoluciona lab mockup showing Windows activation settings with digital license status highlighted.</desc>
  <rect width="1280" height="720" fill="#eef6f4"/>
  <rect x="80" y="64" width="1120" height="592" rx="18" fill="#ffffff" stroke="#bfd8d1"/>
  <rect x="80" y="64" width="280" height="592" rx="18" fill="#f4fbf9"/>
  <text x="124" y="132" font-family="Arial, sans-serif" font-size="30" font-weight="700" fill="#12312b">Configuracion</text>
  <text x="124" y="190" font-family="Arial, sans-serif" font-size="18" fill="#375b52">Sistema</text>
  <text x="124" y="236" font-family="Arial, sans-serif" font-size="18" fill="#375b52">Pantalla</text>
  <rect x="112" y="264" width="216" height="44" rx="8" fill="#d9f5ee"/>
  <text x="132" y="292" font-family="Arial, sans-serif" font-size="18" fill="#0f766e">Activacion</text>
  <text x="420" y="138" font-family="Arial, sans-serif" font-size="38" font-weight="700" fill="#0f172a">Activacion</text>
  <rect x="420" y="190" width="700" height="160" rx="14" fill="#f8fafc" stroke="#cbd5e1"/>
  <text x="454" y="246" font-family="Arial, sans-serif" font-size="24" font-weight="700" fill="#0f172a">Estado de activacion</text>
  <text x="454" y="296" font-family="Arial, sans-serif" font-size="22" fill="#0f766e">Windows esta activado con una licencia digital</text>
  <rect x="438" y="378" width="520" height="72" rx="12" fill="#ecfeff" stroke="#06b6d4"/>
  <text x="464" y="423" font-family="Arial, sans-serif" font-size="20" fill="#155e75">Licencia vinculada a cuenta Microsoft</text>
  <path d="M1016 300 L1128 220 L1128 276 L1192 276 L1192 324 L1128 324 L1128 380 Z" fill="#f97316"/>
  <rect x="436" y="502" width="220" height="48" rx="8" fill="#0f766e"/>
  <text x="470" y="533" font-family="Arial, sans-serif" font-size="18" fill="#ffffff">Solucionar problemas</text>
</svg>
